solid OpenSCAD_Model
  facet normal 0 0 1
    outer loop
      vertex 89.2093 77.9775 0.8
      vertex 87.6185 78.2939 0.8
      vertex 86 78.4 0.8
    endloop
  endfacet
  facet normal 0 0 1
    outer loop
      vertex 90.7453 77.4561 0.8
      vertex 96.7387 72.2 0.8
      vertex 92.2 76.7387 0.8
    endloop
  endfacet
  facet normal 0 0 1
    outer loop
      vertex 89.2093 77.9775 0.8
      vertex 86 78.4 0.8
      vertex 90.7453 77.4561 0.8
    endloop
  endfacet
  facet normal 0 0 1
    outer loop
      vertex 92.2 76.7387 0.8
      vertex 94.7681 74.7681 0.8
      vertex 93.5486 75.8376 0.8
    endloop
  endfacet
  facet normal 0 0 1
    outer loop
      vertex 96.7387 72.2 0.8
      vertex 95.8376 73.5486 0.8
      vertex 94.7681 74.7681 0.8
    endloop
  endfacet
  facet normal 0 0 1
    outer loop
      vertex 92.2 76.7387 0.8
      vertex 96.7387 72.2 0.8
      vertex 94.7681 74.7681 0.8
    endloop
  endfacet
  facet normal 0 0 1
    outer loop
      vertex 90.7453 77.4561 0.8
      vertex 97.4561 70.7453 0.8
      vertex 96.7387 72.2 0.8
    endloop
  endfacet
  facet normal 0 0 1
    outer loop
      vertex 90.7453 77.4561 0.8
      vertex 86 78.4 0.8
      vertex 97.4561 70.7453 0.8
    endloop
  endfacet
  facet normal 0 0 1
    outer loop
      vertex 98.4 66 0.8
      vertex 98.2939 67.6185 0.8
      vertex 97.9775 69.2093 0.8
    endloop
  endfacet
  facet normal 0 0 1
    outer loop
      vertex 97.4561 70.7453 0.8
      vertex 98.4 66 0.8
      vertex 97.9775 69.2093 0.8
    endloop
  endfacet
  facet normal 0 0 1
    outer loop
      vertex 97.4561 70.7453 0.8
      vertex 86 78.4 0.8
      vertex 98.4 66 0.8
    endloop
  endfacet
  facet normal 0 0 1
    outer loop
      vertex 98.4 66 0.8
      vertex 95.1 47.4 0.8
      vertex 98.4 47.4 0.8
    endloop
  endfacet
  facet normal 0 0 1
    outer loop
      vertex 98.4 66 0.8
      vertex 86 78.4 0.8
      vertex 95.1 47.4 0.8
    endloop
  endfacet
  facet normal 0 0 1
    outer loop
      vertex -37.6 -75.1 0.8
      vertex 37.6 75.1 0.8
      vertex -37.6 75.1 0.8
    endloop
  endfacet
  facet normal -0 0 1
    outer loop
      vertex 95.1 22.6 0.8
      vertex 95.1 -22.6 0.8
      vertex 98.4 22.6 0.8
    endloop
  endfacet
  facet normal 0 0 1
    outer loop
      vertex 98.4 22.6 0.8
      vertex 95.1 -22.6 0.8
      vertex 98.4 -22.6 0.8
    endloop
  endfacet
  facet normal 0 -0 1
    outer loop
      vertex 86 -78.4 0.8
      vertex 95.1 -47.4 0.8
      vertex 62.4 -75.1 0.8
    endloop
  endfacet
  facet normal 0 0 1
    outer loop
      vertex 97.4561 -70.7453 0.8
      vertex 86 -78.4 0.8
      vertex 90.7453 -77.4561 0.8
    endloop
  endfacet
  facet normal 0 0 1
    outer loop
      vertex 94.7681 -74.7681 0.8
      vertex 92.2 -76.7387 0.8
      vertex 93.5486 -75.8376 0.8
    endloop
  endfacet
  facet normal 0 0 1
    outer loop
      vertex 98.4 -47.4 0.8
      vertex 95.1 -47.4 0.8
      vertex 98.4 -66 0.8
    endloop
  endfacet
  facet normal 0 0 1
    outer loop
      vertex 98.4 -66 0.8
      vertex 97.9775 -69.2093 0.8
      vertex 98.2939 -67.6185 0.8
    endloop
  endfacet
  facet normal 0 0 1
    outer loop
      vertex 98.4 -66 0.8
      vertex 97.4561 -70.7453 0.8
      vertex 97.9775 -69.2093 0.8
    endloop
  endfacet
  facet normal 0 -0 1
    outer loop
      vertex 92.2 -76.7387 0.8
      vertex 96.7387 -72.2 0.8
      vertex 90.7453 -77.4561 0.8
    endloop
  endfacet
  facet normal 0 0 1
    outer loop
      vertex 94.7681 -74.7681 0.8
      vertex 95.8376 -73.5486 0.8
      vertex 96.7387 -72.2 0.8
    endloop
  endfacet
  facet normal 0 -0 1
    outer loop
      vertex 94.7681 -74.7681 0.8
      vertex 96.7387 -72.2 0.8
      vertex 92.2 -76.7387 0.8
    endloop
  endfacet
  facet normal 0 -0 1
    outer loop
      vertex 96.7387 -72.2 0.8
      vertex 97.4561 -70.7453 0.8
      vertex 90.7453 -77.4561 0.8
    endloop
  endfacet
  facet normal 0 0 1
    outer loop
      vertex 86 -78.4 0.8
      vertex 87.6185 -78.2939 0.8
      vertex 89.2093 -77.9775 0.8
    endloop
  endfacet
  facet normal 0 0 1
    outer loop
      vertex 90.7453 -77.4561 0.8
      vertex 86 -78.4 0.8
      vertex 89.2093 -77.9775 0.8
    endloop
  endfacet
  facet normal 0 -0 1
    outer loop
      vertex 97.4561 -70.7453 0.8
      vertex 98.4 -66 0.8
      vertex 86 -78.4 0.8
    endloop
  endfacet
  facet normal 0 0 1
    outer loop
      vertex 86 -78.4 0.8
      vertex 98.4 -66 0.8
      vertex 95.1 -47.4 0.8
    endloop
  endfacet
  facet normal 0 0 1
    outer loop
      vertex 62.4 -78.4 0.8
      vertex 86 -78.4 0.8
      vertex 62.4 -75.1 0.8
    endloop
  endfacet
  facet normal 0 0 1
    outer loop
      vertex 62.4 -75.1 0.8
      vertex 95.1 -47.4 0.8
      vertex 95.1 -22.6 0.8
    endloop
  endfacet
  facet normal 0 0 1
    outer loop
      vertex 37.6 -75.1 0.8
      vertex 62.4 -75.1 0.8
      vertex 95.1 -22.6 0.8
    endloop
  endfacet
  facet normal 0 0 1
    outer loop
      vertex 95.1 22.6 0.8
      vertex 37.6 -75.1 0.8
      vertex 95.1 -22.6 0.8
    endloop
  endfacet
  facet normal -0 0 1
    outer loop
      vertex -37.6 -75.1 0.8
      vertex -37.6 -78.4 0.8
      vertex 37.6 -75.1 0.8
    endloop
  endfacet
  facet normal 0 0 1
    outer loop
      vertex -95.1 22.6 0.8
      vertex -37.6 75.1 0.8
      vertex -62.4 75.1 0.8
    endloop
  endfacet
  facet normal 0 -0 1
    outer loop
      vertex 37.6 -78.4 0.8
      vertex 37.6 -75.1 0.8
      vertex -37.6 -78.4 0.8
    endloop
  endfacet
  facet normal 0 0 1
    outer loop
      vertex -98.4 -22.6 0.8
      vertex -95.1 -22.6 0.8
      vertex -95.1 22.6 0.8
    endloop
  endfacet
  facet normal -0 0 1
    outer loop
      vertex -98.4 -47.4 0.8
      vertex -98.4 -66 0.8
      vertex -95.1 -47.4 0.8
    endloop
  endfacet
  facet normal 0 0 1
    outer loop
      vertex -89.2093 -77.9775 0.8
      vertex -87.6185 -78.2939 0.8
      vertex -86 -78.4 0.8
    endloop
  endfacet
  facet normal 0 -0 1
    outer loop
      vertex -62.4 -78.4 0.8
      vertex -62.4 -75.1 0.8
      vertex -86 -78.4 0.8
    endloop
  endfacet
  facet normal 0 0 1
    outer loop
      vertex -90.7453 -77.4561 0.8
      vertex -89.2093 -77.9775 0.8
      vertex -86 -78.4 0.8
    endloop
  endfacet
  facet normal 0 0 1
    outer loop
      vertex -92.2 -76.7387 0.8
      vertex -97.4561 -70.7453 0.8
      vertex -96.7387 -72.2 0.8
    endloop
  endfacet
  facet normal -0 -0 1
    outer loop
      vertex -93.5486 -75.8376 0.8
      vertex -92.2 -76.7387 0.8
      vertex -94.7681 -74.7681 0.8
    endloop
  endfacet
  facet normal 0 0 1
    outer loop
      vertex -94.7681 -74.7681 0.8
      vertex -96.7387 -72.2 0.8
      vertex -95.8376 -73.5486 0.8
    endloop
  endfacet
  facet normal -0 -0 1
    outer loop
      vertex -94.7681 -74.7681 0.8
      vertex -92.2 -76.7387 0.8
      vertex -96.7387 -72.2 0.8
    endloop
  endfacet
  facet normal -0 -0 1
    outer loop
      vertex -92.2 -76.7387 0.8
      vertex -90.7453 -77.4561 0.8
      vertex -97.4561 -70.7453 0.8
    endloop
  endfacet
  facet normal -0 -0 1
    outer loop
      vertex -97.4561 -70.7453 0.8
      vertex -90.7453 -77.4561 0.8
      vertex -98.4 -66 0.8
    endloop
  endfacet
  facet normal 0 0 1
    outer loop
      vertex -97.9775 -69.2093 0.8
      vertex -98.4 -66 0.8
      vertex -98.2939 -67.6185 0.8
    endloop
  endfacet
  facet normal -0 -0 1
    outer loop
      vertex -97.9775 -69.2093 0.8
      vertex -97.4561 -70.7453 0.8
      vertex -98.4 -66 0.8
    endloop
  endfacet
  facet normal 0 0 1
    outer loop
      vertex -98.4 -66 0.8
      vertex -90.7453 -77.4561 0.8
      vertex -86 -78.4 0.8
    endloop
  endfacet
  facet normal 0 0 1
    outer loop
      vertex -95.1 -47.4 0.8
      vertex -98.4 -66 0.8
      vertex -86 -78.4 0.8
    endloop
  endfacet
  facet normal 0 0 1
    outer loop
      vertex -95.1 -47.4 0.8
      vertex -86 -78.4 0.8
      vertex -62.4 -75.1 0.8
    endloop
  endfacet
  facet normal 0 0 1
    outer loop
      vertex -37.6 -75.1 0.8
      vertex -95.1 -22.6 0.8
      vertex -62.4 -75.1 0.8
    endloop
  endfacet
  facet normal 0 0 1
    outer loop
      vertex -95.1 -22.6 0.8
      vertex -95.1 -47.4 0.8
      vertex -62.4 -75.1 0.8
    endloop
  endfacet
  facet normal 0 0 1
    outer loop
      vertex -95.1 22.6 0.8
      vertex -98.4 22.6 0.8
      vertex -98.4 -22.6 0.8
    endloop
  endfacet
  facet normal 0 0 1
    outer loop
      vertex -86 78.4 0.8
      vertex -95.1 47.4 0.8
      vertex -62.4 75.1 0.8
    endloop
  endfacet
  facet normal 0 0 1
    outer loop
      vertex -37.6 -75.1 0.8
      vertex 37.6 -75.1 0.8
      vertex 37.6 75.1 0.8
    endloop
  endfacet
  facet normal -0 0 1
    outer loop
      vertex -95.1 -22.6 0.8
      vertex -37.6 -75.1 0.8
      vertex -37.6 75.1 0.8
    endloop
  endfacet
  facet normal -0 0 1
    outer loop
      vertex -95.1 22.6 0.8
      vertex -95.1 -22.6 0.8
      vertex -37.6 75.1 0.8
    endloop
  endfacet
  facet normal 0 0 1
    outer loop
      vertex -95.1 47.4 0.8
      vertex -98.4 66 0.8
      vertex -98.4 47.4 0.8
    endloop
  endfacet
  facet normal 0 0 1
    outer loop
      vertex -97.9775 69.2093 0.8
      vertex -98.2939 67.6185 0.8
      vertex -98.4 66 0.8
    endloop
  endfacet
  facet normal 0 0 1
    outer loop
      vertex -97.4561 70.7453 0.8
      vertex -97.9775 69.2093 0.8
      vertex -98.4 66 0.8
    endloop
  endfacet
  facet normal -0 0 1
    outer loop
      vertex -96.7387 72.2 0.8
      vertex -97.4561 70.7453 0.8
      vertex -92.2 76.7387 0.8
    endloop
  endfacet
  facet normal -0 0 1
    outer loop
      vertex -95.8376 73.5486 0.8
      vertex -96.7387 72.2 0.8
      vertex -94.7681 74.7681 0.8
    endloop
  endfacet
  facet normal 0 0 1
    outer loop
      vertex -94.7681 74.7681 0.8
      vertex -92.2 76.7387 0.8
      vertex -93.5486 75.8376 0.8
    endloop
  endfacet
  facet normal -0 0 1
    outer loop
      vertex -94.7681 74.7681 0.8
      vertex -96.7387 72.2 0.8
      vertex -92.2 76.7387 0.8
    endloop
  endfacet
  facet normal -0 0 1
    outer loop
      vertex -92.2 76.7387 0.8
      vertex -97.4561 70.7453 0.8
      vertex -90.7453 77.4561 0.8
    endloop
  endfacet
  facet normal 0 0 1
    outer loop
      vertex -90.7453 77.4561 0.8
      vertex -97.4561 70.7453 0.8
      vertex -98.4 66 0.8
    endloop
  endfacet
  facet normal 0 0 1
    outer loop
      vertex -89.2093 77.9775 0.8
      vertex -86 78.4 0.8
      vertex -87.6185 78.2939 0.8
    endloop
  endfacet
  facet normal -0 0 1
    outer loop
      vertex -89.2093 77.9775 0.8
      vertex -90.7453 77.4561 0.8
      vertex -86 78.4 0.8
    endloop
  endfacet
  facet normal 0 0 1
    outer loop
      vertex -86 78.4 0.8
      vertex -90.7453 77.4561 0.8
      vertex -98.4 66 0.8
    endloop
  endfacet
  facet normal 0 -0 1
    outer loop
      vertex -95.1 47.4 0.8
      vertex -86 78.4 0.8
      vertex -98.4 66 0.8
    endloop
  endfacet
  facet normal 0 0 1
    outer loop
      vertex 62.4 75.1 0.8
      vertex 37.6 75.1 0.8
      vertex 95.1 22.6 0.8
    endloop
  endfacet
  facet normal 0 -0 1
    outer loop
      vertex -62.4 75.1 0.8
      vertex -62.4 78.4 0.8
      vertex -86 78.4 0.8
    endloop
  endfacet
  facet normal 0 0 1
    outer loop
      vertex -95.1 22.6 0.8
      vertex -62.4 75.1 0.8
      vertex -95.1 47.4 0.8
    endloop
  endfacet
  facet normal 0 0 1
    outer loop
      vertex 95.1 47.4 0.8
      vertex 86 78.4 0.8
      vertex 62.4 75.1 0.8
    endloop
  endfacet
  facet normal 0 0 1
    outer loop
      vertex 37.6 75.1 0.8
      vertex 37.6 -75.1 0.8
      vertex 95.1 22.6 0.8
    endloop
  endfacet
  facet normal 0 0 1
    outer loop
      vertex -37.6 75.1 0.8
      vertex 37.6 78.4 0.8
      vertex -37.6 78.4 0.8
    endloop
  endfacet
  facet normal 0 0 1
    outer loop
      vertex -37.6 75.1 0.8
      vertex 37.6 75.1 0.8
      vertex 37.6 78.4 0.8
    endloop
  endfacet
  facet normal 0 0 1
    outer loop
      vertex 62.4 75.1 0.8
      vertex 86 78.4 0.8
      vertex 62.4 78.4 0.8
    endloop
  endfacet
  facet normal 0 0 1
    outer loop
      vertex 95.1 47.4 0.8
      vertex 62.4 75.1 0.8
      vertex 95.1 22.6 0.8
    endloop
  endfacet
  facet normal 0 0 -1
    outer loop
      vertex 86 78.4 4.44089e-16
      vertex 87.6185 78.2939 4.44089e-16
      vertex 89.2093 77.9775 4.44089e-16
    endloop
  endfacet
  facet normal -0 -0 -1
    outer loop
      vertex 92.2 76.7387 4.44089e-16
      vertex 96.7387 72.2 4.44089e-16
      vertex 90.7453 77.4561 4.44089e-16
    endloop
  endfacet
  facet normal 0 0 -1
    outer loop
      vertex 90.7453 77.4561 4.44089e-16
      vertex 86 78.4 4.44089e-16
      vertex 89.2093 77.9775 4.44089e-16
    endloop
  endfacet
  facet normal -0 -0 -1
    outer loop
      vertex 93.5486 75.8376 4.44089e-16
      vertex 94.7681 74.7681 4.44089e-16
      vertex 92.2 76.7387 4.44089e-16
    endloop
  endfacet
  facet normal 0 0 -1
    outer loop
      vertex 94.7681 74.7681 4.44089e-16
      vertex 95.8376 73.5486 4.44089e-16
      vertex 96.7387 72.2 4.44089e-16
    endloop
  endfacet
  facet normal -0 -0 -1
    outer loop
      vertex 94.7681 74.7681 4.44089e-16
      vertex 96.7387 72.2 4.44089e-16
      vertex 92.2 76.7387 4.44089e-16
    endloop
  endfacet
  facet normal -0 -0 -1
    outer loop
      vertex 96.7387 72.2 4.44089e-16
      vertex 97.4561 70.7453 4.44089e-16
      vertex 90.7453 77.4561 4.44089e-16
    endloop
  endfacet
  facet normal 0 0 -1
    outer loop
      vertex 97.4561 70.7453 4.44089e-16
      vertex 86 78.4 4.44089e-16
      vertex 90.7453 77.4561 4.44089e-16
    endloop
  endfacet
  facet normal 0 0 -1
    outer loop
      vertex 97.9775 69.2093 4.44089e-16
      vertex 98.2939 67.6185 4.44089e-16
      vertex 98.4 66 4.44089e-16
    endloop
  endfacet
  facet normal -0 -0 -1
    outer loop
      vertex 97.9775 69.2093 4.44089e-16
      vertex 98.4 66 4.44089e-16
      vertex 97.4561 70.7453 4.44089e-16
    endloop
  endfacet
  facet normal 0 0 -1
    outer loop
      vertex 98.4 66 4.44089e-16
      vertex 86 78.4 4.44089e-16
      vertex 97.4561 70.7453 4.44089e-16
    endloop
  endfacet
  facet normal 0 0 -1
    outer loop
      vertex 98.4 47.4 4.44089e-16
      vertex 95.1 47.4 4.44089e-16
      vertex 98.4 66 4.44089e-16
    endloop
  endfacet
  facet normal 0 0 -1
    outer loop
      vertex 95.1 47.4 4.44089e-16
      vertex 86 78.4 4.44089e-16
      vertex 98.4 66 4.44089e-16
    endloop
  endfacet
  facet normal 0 0 -1
    outer loop
      vertex -37.6 75.1 4.44089e-16
      vertex 37.6 75.1 4.44089e-16
      vertex -37.6 -75.1 4.44089e-16
    endloop
  endfacet
  facet normal -0 0 -1
    outer loop
      vertex 98.4 22.6 4.44089e-16
      vertex 95.1 -22.6 4.44089e-16
      vertex 95.1 22.6 4.44089e-16
    endloop
  endfacet
  facet normal 0 0 -1
    outer loop
      vertex 98.4 -22.6 4.44089e-16
      vertex 95.1 -22.6 4.44089e-16
      vertex 98.4 22.6 4.44089e-16
    endloop
  endfacet
  facet normal 0 0 -1
    outer loop
      vertex 62.4 -75.1 4.44089e-16
      vertex 95.1 -47.4 4.44089e-16
      vertex 86 -78.4 4.44089e-16
    endloop
  endfacet
  facet normal -0 0 -1
    outer loop
      vertex 90.7453 -77.4561 4.44089e-16
      vertex 86 -78.4 4.44089e-16
      vertex 97.4561 -70.7453 4.44089e-16
    endloop
  endfacet
  facet normal -0 0 -1
    outer loop
      vertex 93.5486 -75.8376 4.44089e-16
      vertex 92.2 -76.7387 4.44089e-16
      vertex 94.7681 -74.7681 4.44089e-16
    endloop
  endfacet
  facet normal 0 0 -1
    outer loop
      vertex 98.4 -66 4.44089e-16
      vertex 95.1 -47.4 4.44089e-16
      vertex 98.4 -47.4 4.44089e-16
    endloop
  endfacet
  facet normal -0 0 -1
    outer loop
      vertex 98.2939 -67.6185 4.44089e-16
      vertex 97.9775 -69.2093 4.44089e-16
      vertex 98.4 -66 4.44089e-16
    endloop
  endfacet
  facet normal -0 0 -1
    outer loop
      vertex 97.9775 -69.2093 4.44089e-16
      vertex 97.4561 -70.7453 4.44089e-16
      vertex 98.4 -66 4.44089e-16
    endloop
  endfacet
  facet normal 0 0 -1
    outer loop
      vertex 90.7453 -77.4561 4.44089e-16
      vertex 96.7387 -72.2 4.44089e-16
      vertex 92.2 -76.7387 4.44089e-16
    endloop
  endfacet
  facet normal 0 0 -1
    outer loop
      vertex 96.7387 -72.2 4.44089e-16
      vertex 95.8376 -73.5486 4.44089e-16
      vertex 94.7681 -74.7681 4.44089e-16
    endloop
  endfacet
  facet normal 0 0 -1
    outer loop
      vertex 92.2 -76.7387 4.44089e-16
      vertex 96.7387 -72.2 4.44089e-16
      vertex 94.7681 -74.7681 4.44089e-16
    endloop
  endfacet
  facet normal 0 0 -1
    outer loop
      vertex 90.7453 -77.4561 4.44089e-16
      vertex 97.4561 -70.7453 4.44089e-16
      vertex 96.7387 -72.2 4.44089e-16
    endloop
  endfacet
  facet normal 0 0 -1
    outer loop
      vertex 89.2093 -77.9775 4.44089e-16
      vertex 87.6185 -78.2939 4.44089e-16
      vertex 86 -78.4 4.44089e-16
    endloop
  endfacet
  facet normal -0 0 -1
    outer loop
      vertex 89.2093 -77.9775 4.44089e-16
      vertex 86 -78.4 4.44089e-16
      vertex 90.7453 -77.4561 4.44089e-16
    endloop
  endfacet
  facet normal 0 0 -1
    outer loop
      vertex 86 -78.4 4.44089e-16
      vertex 98.4 -66 4.44089e-16
      vertex 97.4561 -70.7453 4.44089e-16
    endloop
  endfacet
  facet normal 0 -0 -1
    outer loop
      vertex 95.1 -47.4 4.44089e-16
      vertex 98.4 -66 4.44089e-16
      vertex 86 -78.4 4.44089e-16
    endloop
  endfacet
  facet normal 0 0 -1
    outer loop
      vertex 62.4 -75.1 4.44089e-16
      vertex 86 -78.4 4.44089e-16
      vertex 62.4 -78.4 4.44089e-16
    endloop
  endfacet
  facet normal 0 -0 -1
    outer loop
      vertex 95.1 -22.6 4.44089e-16
      vertex 95.1 -47.4 4.44089e-16
      vertex 62.4 -75.1 4.44089e-16
    endloop
  endfacet
  facet normal 0 0 -1
    outer loop
      vertex 95.1 -22.6 4.44089e-16
      vertex 62.4 -75.1 4.44089e-16
      vertex 37.6 -75.1 4.44089e-16
    endloop
  endfacet
  facet normal -0 0 -1
    outer loop
      vertex 95.1 -22.6 4.44089e-16
      vertex 37.6 -75.1 4.44089e-16
      vertex 95.1 22.6 4.44089e-16
    endloop
  endfacet
  facet normal -0 0 -1
    outer loop
      vertex 37.6 -75.1 4.44089e-16
      vertex -37.6 -78.4 4.44089e-16
      vertex -37.6 -75.1 4.44089e-16
    endloop
  endfacet
  facet normal 0 -0 -1
    outer loop
      vertex -62.4 75.1 4.44089e-16
      vertex -37.6 75.1 4.44089e-16
      vertex -95.1 22.6 4.44089e-16
    endloop
  endfacet
  facet normal 0 0 -1
    outer loop
      vertex -37.6 -78.4 4.44089e-16
      vertex 37.6 -75.1 4.44089e-16
      vertex 37.6 -78.4 4.44089e-16
    endloop
  endfacet
  facet normal 0 -0 -1
    outer loop
      vertex -95.1 22.6 4.44089e-16
      vertex -95.1 -22.6 4.44089e-16
      vertex -98.4 -22.6 4.44089e-16
    endloop
  endfacet
  facet normal -0 0 -1
    outer loop
      vertex -95.1 -47.4 4.44089e-16
      vertex -98.4 -66 4.44089e-16
      vertex -98.4 -47.4 4.44089e-16
    endloop
  endfacet
  facet normal 0 0 -1
    outer loop
      vertex -86 -78.4 4.44089e-16
      vertex -87.6185 -78.2939 4.44089e-16
      vertex -89.2093 -77.9775 4.44089e-16
    endloop
  endfacet
  facet normal 0 0 -1
    outer loop
      vertex -86 -78.4 4.44089e-16
      vertex -62.4 -75.1 4.44089e-16
      vertex -62.4 -78.4 4.44089e-16
    endloop
  endfacet
  facet normal 0 0 -1
    outer loop
      vertex -86 -78.4 4.44089e-16
      vertex -89.2093 -77.9775 4.44089e-16
      vertex -90.7453 -77.4561 4.44089e-16
    endloop
  endfacet
  facet normal 0 0 -1
    outer loop
      vertex -96.7387 -72.2 4.44089e-16
      vertex -97.4561 -70.7453 4.44089e-16
      vertex -92.2 -76.7387 4.44089e-16
    endloop
  endfacet
  facet normal 0 0 -1
    outer loop
      vertex -94.7681 -74.7681 4.44089e-16
      vertex -92.2 -76.7387 4.44089e-16
      vertex -93.5486 -75.8376 4.44089e-16
    endloop
  endfacet
  facet normal 0 0 -1
    outer loop
      vertex -95.8376 -73.5486 4.44089e-16
      vertex -96.7387 -72.2 4.44089e-16
      vertex -94.7681 -74.7681 4.44089e-16
    endloop
  endfacet
  facet normal 0 0 -1
    outer loop
      vertex -96.7387 -72.2 4.44089e-16
      vertex -92.2 -76.7387 4.44089e-16
      vertex -94.7681 -74.7681 4.44089e-16
    endloop
  endfacet
  facet normal 0 0 -1
    outer loop
      vertex -97.4561 -70.7453 4.44089e-16
      vertex -90.7453 -77.4561 4.44089e-16
      vertex -92.2 -76.7387 4.44089e-16
    endloop
  endfacet
  facet normal 0 0 -1
    outer loop
      vertex -98.4 -66 4.44089e-16
      vertex -90.7453 -77.4561 4.44089e-16
      vertex -97.4561 -70.7453 4.44089e-16
    endloop
  endfacet
  facet normal 0 0 -1
    outer loop
      vertex -98.2939 -67.6185 4.44089e-16
      vertex -98.4 -66 4.44089e-16
      vertex -97.9775 -69.2093 4.44089e-16
    endloop
  endfacet
  facet normal 0 0 -1
    outer loop
      vertex -98.4 -66 4.44089e-16
      vertex -97.4561 -70.7453 4.44089e-16
      vertex -97.9775 -69.2093 4.44089e-16
    endloop
  endfacet
  facet normal 0 0 -1
    outer loop
      vertex -86 -78.4 4.44089e-16
      vertex -90.7453 -77.4561 4.44089e-16
      vertex -98.4 -66 4.44089e-16
    endloop
  endfacet
  facet normal 0 0 -1
    outer loop
      vertex -86 -78.4 4.44089e-16
      vertex -98.4 -66 4.44089e-16
      vertex -95.1 -47.4 4.44089e-16
    endloop
  endfacet
  facet normal -0 0 -1
    outer loop
      vertex -62.4 -75.1 4.44089e-16
      vertex -86 -78.4 4.44089e-16
      vertex -95.1 -47.4 4.44089e-16
    endloop
  endfacet
  facet normal 0 0 -1
    outer loop
      vertex -62.4 -75.1 4.44089e-16
      vertex -95.1 -22.6 4.44089e-16
      vertex -37.6 -75.1 4.44089e-16
    endloop
  endfacet
  facet normal 0 0 -1
    outer loop
      vertex -62.4 -75.1 4.44089e-16
      vertex -95.1 -47.4 4.44089e-16
      vertex -95.1 -22.6 4.44089e-16
    endloop
  endfacet
  facet normal 0 0 -1
    outer loop
      vertex -98.4 -22.6 4.44089e-16
      vertex -98.4 22.6 4.44089e-16
      vertex -95.1 22.6 4.44089e-16
    endloop
  endfacet
  facet normal -0 0 -1
    outer loop
      vertex -62.4 75.1 4.44089e-16
      vertex -95.1 47.4 4.44089e-16
      vertex -86 78.4 4.44089e-16
    endloop
  endfacet
  facet normal 0 -0 -1
    outer loop
      vertex 37.6 75.1 4.44089e-16
      vertex 37.6 -75.1 4.44089e-16
      vertex -37.6 -75.1 4.44089e-16
    endloop
  endfacet
  facet normal 0 -0 -1
    outer loop
      vertex -37.6 75.1 4.44089e-16
      vertex -37.6 -75.1 4.44089e-16
      vertex -95.1 -22.6 4.44089e-16
    endloop
  endfacet
  facet normal 0 0 -1
    outer loop
      vertex -37.6 75.1 4.44089e-16
      vertex -95.1 -22.6 4.44089e-16
      vertex -95.1 22.6 4.44089e-16
    endloop
  endfacet
  facet normal 0 0 -1
    outer loop
      vertex -98.4 47.4 4.44089e-16
      vertex -98.4 66 4.44089e-16
      vertex -95.1 47.4 4.44089e-16
    endloop
  endfacet
  facet normal 0 0 -1
    outer loop
      vertex -98.4 66 4.44089e-16
      vertex -98.2939 67.6185 4.44089e-16
      vertex -97.9775 69.2093 4.44089e-16
    endloop
  endfacet
  facet normal 0 0 -1
    outer loop
      vertex -98.4 66 4.44089e-16
      vertex -97.9775 69.2093 4.44089e-16
      vertex -97.4561 70.7453 4.44089e-16
    endloop
  endfacet
  facet normal 0 0 -1
    outer loop
      vertex -92.2 76.7387 4.44089e-16
      vertex -97.4561 70.7453 4.44089e-16
      vertex -96.7387 72.2 4.44089e-16
    endloop
  endfacet
  facet normal 0 0 -1
    outer loop
      vertex -94.7681 74.7681 4.44089e-16
      vertex -96.7387 72.2 4.44089e-16
      vertex -95.8376 73.5486 4.44089e-16
    endloop
  endfacet
  facet normal 0 -0 -1
    outer loop
      vertex -93.5486 75.8376 4.44089e-16
      vertex -92.2 76.7387 4.44089e-16
      vertex -94.7681 74.7681 4.44089e-16
    endloop
  endfacet
  facet normal 0 0 -1
    outer loop
      vertex -92.2 76.7387 4.44089e-16
      vertex -96.7387 72.2 4.44089e-16
      vertex -94.7681 74.7681 4.44089e-16
    endloop
  endfacet
  facet normal 0 0 -1
    outer loop
      vertex -90.7453 77.4561 4.44089e-16
      vertex -97.4561 70.7453 4.44089e-16
      vertex -92.2 76.7387 4.44089e-16
    endloop
  endfacet
  facet normal 0 0 -1
    outer loop
      vertex -98.4 66 4.44089e-16
      vertex -97.4561 70.7453 4.44089e-16
      vertex -90.7453 77.4561 4.44089e-16
    endloop
  endfacet
  facet normal 0 -0 -1
    outer loop
      vertex -87.6185 78.2939 4.44089e-16
      vertex -86 78.4 4.44089e-16
      vertex -89.2093 77.9775 4.44089e-16
    endloop
  endfacet
  facet normal 0 0 -1
    outer loop
      vertex -86 78.4 4.44089e-16
      vertex -90.7453 77.4561 4.44089e-16
      vertex -89.2093 77.9775 4.44089e-16
    endloop
  endfacet
  facet normal 0 0 -1
    outer loop
      vertex -98.4 66 4.44089e-16
      vertex -90.7453 77.4561 4.44089e-16
      vertex -86 78.4 4.44089e-16
    endloop
  endfacet
  facet normal 0 0 -1
    outer loop
      vertex -98.4 66 4.44089e-16
      vertex -86 78.4 4.44089e-16
      vertex -95.1 47.4 4.44089e-16
    endloop
  endfacet
  facet normal 0 0 -1
    outer loop
      vertex 95.1 22.6 4.44089e-16
      vertex 37.6 75.1 4.44089e-16
      vertex 62.4 75.1 4.44089e-16
    endloop
  endfacet
  facet normal 0 0 -1
    outer loop
      vertex -86 78.4 4.44089e-16
      vertex -62.4 78.4 4.44089e-16
      vertex -62.4 75.1 4.44089e-16
    endloop
  endfacet
  facet normal 0 0 -1
    outer loop
      vertex -95.1 47.4 4.44089e-16
      vertex -62.4 75.1 4.44089e-16
      vertex -95.1 22.6 4.44089e-16
    endloop
  endfacet
  facet normal 0 0 -1
    outer loop
      vertex 62.4 75.1 4.44089e-16
      vertex 86 78.4 4.44089e-16
      vertex 95.1 47.4 4.44089e-16
    endloop
  endfacet
  facet normal -0 0 -1
    outer loop
      vertex 95.1 22.6 4.44089e-16
      vertex 37.6 -75.1 4.44089e-16
      vertex 37.6 75.1 4.44089e-16
    endloop
  endfacet
  facet normal 0 0 -1
    outer loop
      vertex -37.6 78.4 4.44089e-16
      vertex 37.6 78.4 4.44089e-16
      vertex -37.6 75.1 4.44089e-16
    endloop
  endfacet
  facet normal 0 -0 -1
    outer loop
      vertex 37.6 78.4 4.44089e-16
      vertex 37.6 75.1 4.44089e-16
      vertex -37.6 75.1 4.44089e-16
    endloop
  endfacet
  facet normal 0 0 -1
    outer loop
      vertex 62.4 78.4 4.44089e-16
      vertex 86 78.4 4.44089e-16
      vertex 62.4 75.1 4.44089e-16
    endloop
  endfacet
  facet normal 0 0 -1
    outer loop
      vertex 95.1 22.6 4.44089e-16
      vertex 62.4 75.1 4.44089e-16
      vertex 95.1 47.4 4.44089e-16
    endloop
  endfacet
  facet normal 0.195073 0.980789 0
    outer loop
      vertex 89.2093 77.9775 0.8
      vertex 87.6185 78.2939 4.44089e-16
      vertex 87.6185 78.2939 0.8
    endloop
  endfacet
  facet normal 0.195073 0.980789 0
    outer loop
      vertex 89.2093 77.9775 0.8
      vertex 89.2093 77.9775 4.44089e-16
      vertex 87.6185 78.2939 4.44089e-16
    endloop
  endfacet
  facet normal 0.321439 0.94693 0
    outer loop
      vertex 90.7453 77.4561 0.8
      vertex 89.2093 77.9775 4.44089e-16
      vertex 89.2093 77.9775 0.8
    endloop
  endfacet
  facet normal 0.321439 0.94693 0
    outer loop
      vertex 90.7453 77.4561 0.8
      vertex 90.7453 77.4561 4.44089e-16
      vertex 89.2093 77.9775 4.44089e-16
    endloop
  endfacet
  facet normal 0.442299 0.896868 0
    outer loop
      vertex 92.2 76.7387 0.8
      vertex 90.7453 77.4561 4.44089e-16
      vertex 90.7453 77.4561 0.8
    endloop
  endfacet
  facet normal 0.442299 0.896868 0
    outer loop
      vertex 92.2 76.7387 0.8
      vertex 92.2 76.7387 4.44089e-16
      vertex 90.7453 77.4561 4.44089e-16
    endloop
  endfacet
  facet normal 0.555568 0.831471 0
    outer loop
      vertex 93.5486 75.8376 0.8
      vertex 92.2 76.7387 4.44089e-16
      vertex 92.2 76.7387 0.8
    endloop
  endfacet
  facet normal 0.555568 0.831471 0
    outer loop
      vertex 93.5486 75.8376 0.8
      vertex 93.5486 75.8376 4.44089e-16
      vertex 92.2 76.7387 4.44089e-16
    endloop
  endfacet
  facet normal 0.659355 0.751831 0
    outer loop
      vertex 94.7681 74.7681 0.8
      vertex 93.5486 75.8376 4.44089e-16
      vertex 93.5486 75.8376 0.8
    endloop
  endfacet
  facet normal 0.659355 0.751831 0
    outer loop
      vertex 94.7681 74.7681 0.8
      vertex 94.7681 74.7681 4.44089e-16
      vertex 93.5486 75.8376 4.44089e-16
    endloop
  endfacet
  facet normal 0.751831 0.659355 0
    outer loop
      vertex 95.8376 73.5486 0.8
      vertex 94.7681 74.7681 4.44089e-16
      vertex 94.7681 74.7681 0.8
    endloop
  endfacet
  facet normal 0.751831 0.659355 0
    outer loop
      vertex 95.8376 73.5486 0.8
      vertex 95.8376 73.5486 4.44089e-16
      vertex 94.7681 74.7681 4.44089e-16
    endloop
  endfacet
  facet normal 0.831471 0.555568 0
    outer loop
      vertex 96.7387 72.2 0.8
      vertex 95.8376 73.5486 4.44089e-16
      vertex 95.8376 73.5486 0.8
    endloop
  endfacet
  facet normal 0.831471 0.555568 0
    outer loop
      vertex 96.7387 72.2 0.8
      vertex 96.7387 72.2 4.44089e-16
      vertex 95.8376 73.5486 4.44089e-16
    endloop
  endfacet
  facet normal 0.896868 0.442299 0
    outer loop
      vertex 97.4561 70.7453 0.8
      vertex 96.7387 72.2 4.44089e-16
      vertex 96.7387 72.2 0.8
    endloop
  endfacet
  facet normal 0.896868 0.442299 0
    outer loop
      vertex 97.4561 70.7453 0.8
      vertex 97.4561 70.7453 4.44089e-16
      vertex 96.7387 72.2 4.44089e-16
    endloop
  endfacet
  facet normal 0.94693 0.321439 0
    outer loop
      vertex 97.9775 69.2093 0.8
      vertex 97.4561 70.7453 4.44089e-16
      vertex 97.4561 70.7453 0.8
    endloop
  endfacet
  facet normal 0.94693 0.321439 0
    outer loop
      vertex 97.9775 69.2093 0.8
      vertex 97.9775 69.2093 4.44089e-16
      vertex 97.4561 70.7453 4.44089e-16
    endloop
  endfacet
  facet normal 0.980789 0.195073 0
    outer loop
      vertex 98.2939 67.6185 0.8
      vertex 97.9775 69.2093 4.44089e-16
      vertex 97.9775 69.2093 0.8
    endloop
  endfacet
  facet normal 0.980789 0.195073 0
    outer loop
      vertex 98.2939 67.6185 0.8
      vertex 98.2939 67.6185 4.44089e-16
      vertex 97.9775 69.2093 4.44089e-16
    endloop
  endfacet
  facet normal 0.997858 0.0654141 0
    outer loop
      vertex 98.4 66 0.8
      vertex 98.2939 67.6185 4.44089e-16
      vertex 98.2939 67.6185 0.8
    endloop
  endfacet
  facet normal 0.997858 0.0654141 0
    outer loop
      vertex 98.4 66 0.8
      vertex 98.4 66 4.44089e-16
      vertex 98.2939 67.6185 4.44089e-16
    endloop
  endfacet
  facet normal 1 -0 0
    outer loop
      vertex 98.4 47.4 0.8
      vertex 98.4 66 4.44089e-16
      vertex 98.4 66 0.8
    endloop
  endfacet
  facet normal 1 0 0
    outer loop
      vertex 98.4 47.4 0.8
      vertex 98.4 47.4 4.44089e-16
      vertex 98.4 66 4.44089e-16
    endloop
  endfacet
  facet normal 0 -1 0
    outer loop
      vertex 95.1 47.4 0.8
      vertex 98.4 47.4 4.44089e-16
      vertex 98.4 47.4 0.8
    endloop
  endfacet
  facet normal 0 -1 0
    outer loop
      vertex 95.1 47.4 0.8
      vertex 95.1 47.4 4.44089e-16
      vertex 98.4 47.4 4.44089e-16
    endloop
  endfacet
  facet normal 1 -0 0
    outer loop
      vertex 95.1 22.6 0.8
      vertex 95.1 47.4 4.44089e-16
      vertex 95.1 47.4 0.8
    endloop
  endfacet
  facet normal 1 0 0
    outer loop
      vertex 95.1 22.6 0.8
      vertex 95.1 22.6 4.44089e-16
      vertex 95.1 47.4 4.44089e-16
    endloop
  endfacet
  facet normal 0 1 0
    outer loop
      vertex 98.4 22.6 0.8
      vertex 95.1 22.6 4.44089e-16
      vertex 95.1 22.6 0.8
    endloop
  endfacet
  facet normal 0 1 0
    outer loop
      vertex 98.4 22.6 0.8
      vertex 98.4 22.6 4.44089e-16
      vertex 95.1 22.6 4.44089e-16
    endloop
  endfacet
  facet normal 1 -0 0
    outer loop
      vertex 98.4 -22.6 0.8
      vertex 98.4 22.6 4.44089e-16
      vertex 98.4 22.6 0.8
    endloop
  endfacet
  facet normal 1 0 0
    outer loop
      vertex 98.4 -22.6 0.8
      vertex 98.4 -22.6 4.44089e-16
      vertex 98.4 22.6 4.44089e-16
    endloop
  endfacet
  facet normal 0 -1 0
    outer loop
      vertex 95.1 -22.6 0.8
      vertex 98.4 -22.6 4.44089e-16
      vertex 98.4 -22.6 0.8
    endloop
  endfacet
  facet normal 0 -1 0
    outer loop
      vertex 95.1 -22.6 0.8
      vertex 95.1 -22.6 4.44089e-16
      vertex 98.4 -22.6 4.44089e-16
    endloop
  endfacet
  facet normal 1 -0 0
    outer loop
      vertex 95.1 -47.4 0.8
      vertex 95.1 -22.6 4.44089e-16
      vertex 95.1 -22.6 0.8
    endloop
  endfacet
  facet normal 1 0 0
    outer loop
      vertex 95.1 -47.4 0.8
      vertex 95.1 -47.4 4.44089e-16
      vertex 95.1 -22.6 4.44089e-16
    endloop
  endfacet
  facet normal 0 1 0
    outer loop
      vertex 98.4 -47.4 0.8
      vertex 95.1 -47.4 4.44089e-16
      vertex 95.1 -47.4 0.8
    endloop
  endfacet
  facet normal 0 1 0
    outer loop
      vertex 98.4 -47.4 0.8
      vertex 98.4 -47.4 4.44089e-16
      vertex 95.1 -47.4 4.44089e-16
    endloop
  endfacet
  facet normal 1 -0 0
    outer loop
      vertex 98.4 -66 0.8
      vertex 98.4 -47.4 4.44089e-16
      vertex 98.4 -47.4 0.8
    endloop
  endfacet
  facet normal 1 0 0
    outer loop
      vertex 98.4 -66 0.8
      vertex 98.4 -66 4.44089e-16
      vertex 98.4 -47.4 4.44089e-16
    endloop
  endfacet
  facet normal 0.997858 -0.0654141 0
    outer loop
      vertex 98.2939 -67.6185 0.8
      vertex 98.4 -66 4.44089e-16
      vertex 98.4 -66 0.8
    endloop
  endfacet
  facet normal 0.997858 -0.0654141 0
    outer loop
      vertex 98.2939 -67.6185 0.8
      vertex 98.2939 -67.6185 4.44089e-16
      vertex 98.4 -66 4.44089e-16
    endloop
  endfacet
  facet normal 0.980789 -0.195073 0
    outer loop
      vertex 97.9775 -69.2093 0.8
      vertex 98.2939 -67.6185 4.44089e-16
      vertex 98.2939 -67.6185 0.8
    endloop
  endfacet
  facet normal 0.980789 -0.195073 0
    outer loop
      vertex 97.9775 -69.2093 0.8
      vertex 97.9775 -69.2093 4.44089e-16
      vertex 98.2939 -67.6185 4.44089e-16
    endloop
  endfacet
  facet normal 0.94693 -0.321439 0
    outer loop
      vertex 97.4561 -70.7453 0.8
      vertex 97.9775 -69.2093 4.44089e-16
      vertex 97.9775 -69.2093 0.8
    endloop
  endfacet
  facet normal 0.94693 -0.321439 0
    outer loop
      vertex 97.4561 -70.7453 0.8
      vertex 97.4561 -70.7453 4.44089e-16
      vertex 97.9775 -69.2093 4.44089e-16
    endloop
  endfacet
  facet normal 0.896868 -0.442299 0
    outer loop
      vertex 96.7387 -72.2 0.8
      vertex 97.4561 -70.7453 4.44089e-16
      vertex 97.4561 -70.7453 0.8
    endloop
  endfacet
  facet normal 0.896868 -0.442299 0
    outer loop
      vertex 96.7387 -72.2 0.8
      vertex 96.7387 -72.2 4.44089e-16
      vertex 97.4561 -70.7453 4.44089e-16
    endloop
  endfacet
  facet normal 0.831471 -0.555568 0
    outer loop
      vertex 95.8376 -73.5486 0.8
      vertex 96.7387 -72.2 4.44089e-16
      vertex 96.7387 -72.2 0.8
    endloop
  endfacet
  facet normal 0.831471 -0.555568 0
    outer loop
      vertex 95.8376 -73.5486 0.8
      vertex 95.8376 -73.5486 4.44089e-16
      vertex 96.7387 -72.2 4.44089e-16
    endloop
  endfacet
  facet normal 0.751831 -0.659355 0
    outer loop
      vertex 94.7681 -74.7681 0.8
      vertex 95.8376 -73.5486 4.44089e-16
      vertex 95.8376 -73.5486 0.8
    endloop
  endfacet
  facet normal 0.751831 -0.659355 0
    outer loop
      vertex 94.7681 -74.7681 0.8
      vertex 94.7681 -74.7681 4.44089e-16
      vertex 95.8376 -73.5486 4.44089e-16
    endloop
  endfacet
  facet normal 0.659355 -0.751831 0
    outer loop
      vertex 93.5486 -75.8376 0.8
      vertex 94.7681 -74.7681 4.44089e-16
      vertex 94.7681 -74.7681 0.8
    endloop
  endfacet
  facet normal 0.659355 -0.751831 0
    outer loop
      vertex 93.5486 -75.8376 0.8
      vertex 93.5486 -75.8376 4.44089e-16
      vertex 94.7681 -74.7681 4.44089e-16
    endloop
  endfacet
  facet normal 0.555568 -0.831471 0
    outer loop
      vertex 92.2 -76.7387 0.8
      vertex 93.5486 -75.8376 4.44089e-16
      vertex 93.5486 -75.8376 0.8
    endloop
  endfacet
  facet normal 0.555568 -0.831471 0
    outer loop
      vertex 92.2 -76.7387 0.8
      vertex 92.2 -76.7387 4.44089e-16
      vertex 93.5486 -75.8376 4.44089e-16
    endloop
  endfacet
  facet normal 0.442299 -0.896868 0
    outer loop
      vertex 90.7453 -77.4561 0.8
      vertex 92.2 -76.7387 4.44089e-16
      vertex 92.2 -76.7387 0.8
    endloop
  endfacet
  facet normal 0.442299 -0.896868 0
    outer loop
      vertex 90.7453 -77.4561 0.8
      vertex 90.7453 -77.4561 4.44089e-16
      vertex 92.2 -76.7387 4.44089e-16
    endloop
  endfacet
  facet normal 0.321439 -0.94693 0
    outer loop
      vertex 89.2093 -77.9775 0.8
      vertex 90.7453 -77.4561 4.44089e-16
      vertex 90.7453 -77.4561 0.8
    endloop
  endfacet
  facet normal 0.321439 -0.94693 0
    outer loop
      vertex 89.2093 -77.9775 0.8
      vertex 89.2093 -77.9775 4.44089e-16
      vertex 90.7453 -77.4561 4.44089e-16
    endloop
  endfacet
  facet normal 0.195073 -0.980789 0
    outer loop
      vertex 87.6185 -78.2939 0.8
      vertex 89.2093 -77.9775 4.44089e-16
      vertex 89.2093 -77.9775 0.8
    endloop
  endfacet
  facet normal 0.195073 -0.980789 0
    outer loop
      vertex 87.6185 -78.2939 0.8
      vertex 87.6185 -78.2939 4.44089e-16
      vertex 89.2093 -77.9775 4.44089e-16
    endloop
  endfacet
  facet normal 0.0654141 -0.997858 0
    outer loop
      vertex 86 -78.4 0.8
      vertex 87.6185 -78.2939 4.44089e-16
      vertex 87.6185 -78.2939 0.8
    endloop
  endfacet
  facet normal 0.0654141 -0.997858 0
    outer loop
      vertex 86 -78.4 0.8
      vertex 86 -78.4 4.44089e-16
      vertex 87.6185 -78.2939 4.44089e-16
    endloop
  endfacet
  facet normal 0 -1 0
    outer loop
      vertex 62.4 -78.4 0.8
      vertex 86 -78.4 4.44089e-16
      vertex 86 -78.4 0.8
    endloop
  endfacet
  facet normal 0 -1 0
    outer loop
      vertex 62.4 -78.4 0.8
      vertex 62.4 -78.4 4.44089e-16
      vertex 86 -78.4 4.44089e-16
    endloop
  endfacet
  facet normal -1 -0 0
    outer loop
      vertex 62.4 -75.1 0.8
      vertex 62.4 -78.4 4.44089e-16
      vertex 62.4 -78.4 0.8
    endloop
  endfacet
  facet normal -1 0 -0
    outer loop
      vertex 62.4 -75.1 0.8
      vertex 62.4 -75.1 4.44089e-16
      vertex 62.4 -78.4 4.44089e-16
    endloop
  endfacet
  facet normal 0 -1 0
    outer loop
      vertex 37.6 -75.1 0.8
      vertex 62.4 -75.1 4.44089e-16
      vertex 62.4 -75.1 0.8
    endloop
  endfacet
  facet normal 0 -1 0
    outer loop
      vertex 37.6 -75.1 0.8
      vertex 37.6 -75.1 4.44089e-16
      vertex 62.4 -75.1 4.44089e-16
    endloop
  endfacet
  facet normal 1 -0 0
    outer loop
      vertex 37.6 -78.4 0.8
      vertex 37.6 -75.1 4.44089e-16
      vertex 37.6 -75.1 0.8
    endloop
  endfacet
  facet normal 1 0 0
    outer loop
      vertex 37.6 -78.4 0.8
      vertex 37.6 -78.4 4.44089e-16
      vertex 37.6 -75.1 4.44089e-16
    endloop
  endfacet
  facet normal 0 -1 0
    outer loop
      vertex -37.6 -78.4 0.8
      vertex 37.6 -78.4 4.44089e-16
      vertex 37.6 -78.4 0.8
    endloop
  endfacet
  facet normal 0 -1 0
    outer loop
      vertex -37.6 -78.4 0.8
      vertex -37.6 -78.4 4.44089e-16
      vertex 37.6 -78.4 4.44089e-16
    endloop
  endfacet
  facet normal -1 -0 0
    outer loop
      vertex -37.6 -75.1 0.8
      vertex -37.6 -78.4 4.44089e-16
      vertex -37.6 -78.4 0.8
    endloop
  endfacet
  facet normal -1 0 -0
    outer loop
      vertex -37.6 -75.1 0.8
      vertex -37.6 -75.1 4.44089e-16
      vertex -37.6 -78.4 4.44089e-16
    endloop
  endfacet
  facet normal 0 -1 0
    outer loop
      vertex -62.4 -75.1 0.8
      vertex -37.6 -75.1 4.44089e-16
      vertex -37.6 -75.1 0.8
    endloop
  endfacet
  facet normal 0 -1 0
    outer loop
      vertex -62.4 -75.1 0.8
      vertex -62.4 -75.1 4.44089e-16
      vertex -37.6 -75.1 4.44089e-16
    endloop
  endfacet
  facet normal 1 -0 0
    outer loop
      vertex -62.4 -78.4 0.8
      vertex -62.4 -75.1 4.44089e-16
      vertex -62.4 -75.1 0.8
    endloop
  endfacet
  facet normal 1 0 0
    outer loop
      vertex -62.4 -78.4 0.8
      vertex -62.4 -78.4 4.44089e-16
      vertex -62.4 -75.1 4.44089e-16
    endloop
  endfacet
  facet normal 0 -1 0
    outer loop
      vertex -86 -78.4 0.8
      vertex -62.4 -78.4 4.44089e-16
      vertex -62.4 -78.4 0.8
    endloop
  endfacet
  facet normal 0 -1 0
    outer loop
      vertex -86 -78.4 0.8
      vertex -86 -78.4 4.44089e-16
      vertex -62.4 -78.4 4.44089e-16
    endloop
  endfacet
  facet normal -0.0654141 -0.997858 0
    outer loop
      vertex -87.6185 -78.2939 0.8
      vertex -86 -78.4 4.44089e-16
      vertex -86 -78.4 0.8
    endloop
  endfacet
  facet normal -0.0654141 -0.997858 -0
    outer loop
      vertex -87.6185 -78.2939 0.8
      vertex -87.6185 -78.2939 4.44089e-16
      vertex -86 -78.4 4.44089e-16
    endloop
  endfacet
  facet normal -0.195073 -0.980789 0
    outer loop
      vertex -89.2093 -77.9775 0.8
      vertex -87.6185 -78.2939 4.44089e-16
      vertex -87.6185 -78.2939 0.8
    endloop
  endfacet
  facet normal -0.195073 -0.980789 -0
    outer loop
      vertex -89.2093 -77.9775 0.8
      vertex -89.2093 -77.9775 4.44089e-16
      vertex -87.6185 -78.2939 4.44089e-16
    endloop
  endfacet
  facet normal -0.321439 -0.94693 0
    outer loop
      vertex -90.7453 -77.4561 0.8
      vertex -89.2093 -77.9775 4.44089e-16
      vertex -89.2093 -77.9775 0.8
    endloop
  endfacet
  facet normal -0.321439 -0.94693 -0
    outer loop
      vertex -90.7453 -77.4561 0.8
      vertex -90.7453 -77.4561 4.44089e-16
      vertex -89.2093 -77.9775 4.44089e-16
    endloop
  endfacet
  facet normal -0.442299 -0.896868 0
    outer loop
      vertex -92.2 -76.7387 0.8
      vertex -90.7453 -77.4561 4.44089e-16
      vertex -90.7453 -77.4561 0.8
    endloop
  endfacet
  facet normal -0.442299 -0.896868 -0
    outer loop
      vertex -92.2 -76.7387 0.8
      vertex -92.2 -76.7387 4.44089e-16
      vertex -90.7453 -77.4561 4.44089e-16
    endloop
  endfacet
  facet normal -0.555568 -0.831471 0
    outer loop
      vertex -93.5486 -75.8376 0.8
      vertex -92.2 -76.7387 4.44089e-16
      vertex -92.2 -76.7387 0.8
    endloop
  endfacet
  facet normal -0.555568 -0.831471 -0
    outer loop
      vertex -93.5486 -75.8376 0.8
      vertex -93.5486 -75.8376 4.44089e-16
      vertex -92.2 -76.7387 4.44089e-16
    endloop
  endfacet
  facet normal -0.659355 -0.751831 0
    outer loop
      vertex -94.7681 -74.7681 0.8
      vertex -93.5486 -75.8376 4.44089e-16
      vertex -93.5486 -75.8376 0.8
    endloop
  endfacet
  facet normal -0.659355 -0.751831 -0
    outer loop
      vertex -94.7681 -74.7681 0.8
      vertex -94.7681 -74.7681 4.44089e-16
      vertex -93.5486 -75.8376 4.44089e-16
    endloop
  endfacet
  facet normal -0.751831 -0.659355 0
    outer loop
      vertex -95.8376 -73.5486 0.8
      vertex -94.7681 -74.7681 4.44089e-16
      vertex -94.7681 -74.7681 0.8
    endloop
  endfacet
  facet normal -0.751831 -0.659355 -0
    outer loop
      vertex -95.8376 -73.5486 0.8
      vertex -95.8376 -73.5486 4.44089e-16
      vertex -94.7681 -74.7681 4.44089e-16
    endloop
  endfacet
  facet normal -0.831471 -0.555568 0
    outer loop
      vertex -96.7387 -72.2 0.8
      vertex -95.8376 -73.5486 4.44089e-16
      vertex -95.8376 -73.5486 0.8
    endloop
  endfacet
  facet normal -0.831471 -0.555568 -0
    outer loop
      vertex -96.7387 -72.2 0.8
      vertex -96.7387 -72.2 4.44089e-16
      vertex -95.8376 -73.5486 4.44089e-16
    endloop
  endfacet
  facet normal -0.896868 -0.442299 0
    outer loop
      vertex -97.4561 -70.7453 0.8
      vertex -96.7387 -72.2 4.44089e-16
      vertex -96.7387 -72.2 0.8
    endloop
  endfacet
  facet normal -0.896868 -0.442299 -0
    outer loop
      vertex -97.4561 -70.7453 0.8
      vertex -97.4561 -70.7453 4.44089e-16
      vertex -96.7387 -72.2 4.44089e-16
    endloop
  endfacet
  facet normal -0.94693 -0.321439 0
    outer loop
      vertex -97.9775 -69.2093 0.8
      vertex -97.4561 -70.7453 4.44089e-16
      vertex -97.4561 -70.7453 0.8
    endloop
  endfacet
  facet normal -0.94693 -0.321439 -0
    outer loop
      vertex -97.9775 -69.2093 0.8
      vertex -97.9775 -69.2093 4.44089e-16
      vertex -97.4561 -70.7453 4.44089e-16
    endloop
  endfacet
  facet normal -0.980789 -0.195073 0
    outer loop
      vertex -98.2939 -67.6185 0.8
      vertex -97.9775 -69.2093 4.44089e-16
      vertex -97.9775 -69.2093 0.8
    endloop
  endfacet
  facet normal -0.980789 -0.195073 -0
    outer loop
      vertex -98.2939 -67.6185 0.8
      vertex -98.2939 -67.6185 4.44089e-16
      vertex -97.9775 -69.2093 4.44089e-16
    endloop
  endfacet
  facet normal -0.997858 -0.0654141 0
    outer loop
      vertex -98.4 -66 0.8
      vertex -98.2939 -67.6185 4.44089e-16
      vertex -98.2939 -67.6185 0.8
    endloop
  endfacet
  facet normal -0.997858 -0.0654141 -0
    outer loop
      vertex -98.4 -66 0.8
      vertex -98.4 -66 4.44089e-16
      vertex -98.2939 -67.6185 4.44089e-16
    endloop
  endfacet
  facet normal -1 -0 0
    outer loop
      vertex -98.4 -47.4 0.8
      vertex -98.4 -66 4.44089e-16
      vertex -98.4 -66 0.8
    endloop
  endfacet
  facet normal -1 0 -0
    outer loop
      vertex -98.4 -47.4 0.8
      vertex -98.4 -47.4 4.44089e-16
      vertex -98.4 -66 4.44089e-16
    endloop
  endfacet
  facet normal 0 1 0
    outer loop
      vertex -95.1 -47.4 0.8
      vertex -98.4 -47.4 4.44089e-16
      vertex -98.4 -47.4 0.8
    endloop
  endfacet
  facet normal 0 1 0
    outer loop
      vertex -95.1 -47.4 0.8
      vertex -95.1 -47.4 4.44089e-16
      vertex -98.4 -47.4 4.44089e-16
    endloop
  endfacet
  facet normal -1 -0 0
    outer loop
      vertex -95.1 -22.6 0.8
      vertex -95.1 -47.4 4.44089e-16
      vertex -95.1 -47.4 0.8
    endloop
  endfacet
  facet normal -1 0 -0
    outer loop
      vertex -95.1 -22.6 0.8
      vertex -95.1 -22.6 4.44089e-16
      vertex -95.1 -47.4 4.44089e-16
    endloop
  endfacet
  facet normal 0 -1 0
    outer loop
      vertex -98.4 -22.6 0.8
      vertex -95.1 -22.6 4.44089e-16
      vertex -95.1 -22.6 0.8
    endloop
  endfacet
  facet normal 0 -1 0
    outer loop
      vertex -98.4 -22.6 0.8
      vertex -98.4 -22.6 4.44089e-16
      vertex -95.1 -22.6 4.44089e-16
    endloop
  endfacet
  facet normal -1 -0 0
    outer loop
      vertex -98.4 22.6 0.8
      vertex -98.4 -22.6 4.44089e-16
      vertex -98.4 -22.6 0.8
    endloop
  endfacet
  facet normal -1 0 -0
    outer loop
      vertex -98.4 22.6 0.8
      vertex -98.4 22.6 4.44089e-16
      vertex -98.4 -22.6 4.44089e-16
    endloop
  endfacet
  facet normal 0 1 0
    outer loop
      vertex -95.1 22.6 0.8
      vertex -98.4 22.6 4.44089e-16
      vertex -98.4 22.6 0.8
    endloop
  endfacet
  facet normal 0 1 0
    outer loop
      vertex -95.1 22.6 0.8
      vertex -95.1 22.6 4.44089e-16
      vertex -98.4 22.6 4.44089e-16
    endloop
  endfacet
  facet normal -1 -0 0
    outer loop
      vertex -95.1 47.4 0.8
      vertex -95.1 22.6 4.44089e-16
      vertex -95.1 22.6 0.8
    endloop
  endfacet
  facet normal -1 0 -0
    outer loop
      vertex -95.1 47.4 0.8
      vertex -95.1 47.4 4.44089e-16
      vertex -95.1 22.6 4.44089e-16
    endloop
  endfacet
  facet normal 0 -1 0
    outer loop
      vertex -98.4 47.4 0.8
      vertex -95.1 47.4 4.44089e-16
      vertex -95.1 47.4 0.8
    endloop
  endfacet
  facet normal 0 -1 0
    outer loop
      vertex -98.4 47.4 0.8
      vertex -98.4 47.4 4.44089e-16
      vertex -95.1 47.4 4.44089e-16
    endloop
  endfacet
  facet normal -1 -0 0
    outer loop
      vertex -98.4 66 0.8
      vertex -98.4 47.4 4.44089e-16
      vertex -98.4 47.4 0.8
    endloop
  endfacet
  facet normal -1 0 -0
    outer loop
      vertex -98.4 66 0.8
      vertex -98.4 66 4.44089e-16
      vertex -98.4 47.4 4.44089e-16
    endloop
  endfacet
  facet normal -0.997858 0.0654141 0
    outer loop
      vertex -98.2939 67.6185 0.8
      vertex -98.4 66 4.44089e-16
      vertex -98.4 66 0.8
    endloop
  endfacet
  facet normal -0.997858 0.0654141 0
    outer loop
      vertex -98.2939 67.6185 0.8
      vertex -98.2939 67.6185 4.44089e-16
      vertex -98.4 66 4.44089e-16
    endloop
  endfacet
  facet normal -0.980789 0.195073 0
    outer loop
      vertex -97.9775 69.2093 0.8
      vertex -98.2939 67.6185 4.44089e-16
      vertex -98.2939 67.6185 0.8
    endloop
  endfacet
  facet normal -0.980789 0.195073 0
    outer loop
      vertex -97.9775 69.2093 0.8
      vertex -97.9775 69.2093 4.44089e-16
      vertex -98.2939 67.6185 4.44089e-16
    endloop
  endfacet
  facet normal -0.94693 0.321439 0
    outer loop
      vertex -97.4561 70.7453 0.8
      vertex -97.9775 69.2093 4.44089e-16
      vertex -97.9775 69.2093 0.8
    endloop
  endfacet
  facet normal -0.94693 0.321439 0
    outer loop
      vertex -97.4561 70.7453 0.8
      vertex -97.4561 70.7453 4.44089e-16
      vertex -97.9775 69.2093 4.44089e-16
    endloop
  endfacet
  facet normal -0.896868 0.442299 0
    outer loop
      vertex -96.7387 72.2 0.8
      vertex -97.4561 70.7453 4.44089e-16
      vertex -97.4561 70.7453 0.8
    endloop
  endfacet
  facet normal -0.896868 0.442299 0
    outer loop
      vertex -96.7387 72.2 0.8
      vertex -96.7387 72.2 4.44089e-16
      vertex -97.4561 70.7453 4.44089e-16
    endloop
  endfacet
  facet normal -0.831471 0.555568 0
    outer loop
      vertex -95.8376 73.5486 0.8
      vertex -96.7387 72.2 4.44089e-16
      vertex -96.7387 72.2 0.8
    endloop
  endfacet
  facet normal -0.831471 0.555568 0
    outer loop
      vertex -95.8376 73.5486 0.8
      vertex -95.8376 73.5486 4.44089e-16
      vertex -96.7387 72.2 4.44089e-16
    endloop
  endfacet
  facet normal -0.751831 0.659355 0
    outer loop
      vertex -94.7681 74.7681 0.8
      vertex -95.8376 73.5486 4.44089e-16
      vertex -95.8376 73.5486 0.8
    endloop
  endfacet
  facet normal -0.751831 0.659355 0
    outer loop
      vertex -94.7681 74.7681 0.8
      vertex -94.7681 74.7681 4.44089e-16
      vertex -95.8376 73.5486 4.44089e-16
    endloop
  endfacet
  facet normal -0.659355 0.751831 0
    outer loop
      vertex -93.5486 75.8376 0.8
      vertex -94.7681 74.7681 4.44089e-16
      vertex -94.7681 74.7681 0.8
    endloop
  endfacet
  facet normal -0.659355 0.751831 0
    outer loop
      vertex -93.5486 75.8376 0.8
      vertex -93.5486 75.8376 4.44089e-16
      vertex -94.7681 74.7681 4.44089e-16
    endloop
  endfacet
  facet normal -0.555568 0.831471 0
    outer loop
      vertex -92.2 76.7387 0.8
      vertex -93.5486 75.8376 4.44089e-16
      vertex -93.5486 75.8376 0.8
    endloop
  endfacet
  facet normal -0.555568 0.831471 0
    outer loop
      vertex -92.2 76.7387 0.8
      vertex -92.2 76.7387 4.44089e-16
      vertex -93.5486 75.8376 4.44089e-16
    endloop
  endfacet
  facet normal -0.442299 0.896868 0
    outer loop
      vertex -90.7453 77.4561 0.8
      vertex -92.2 76.7387 4.44089e-16
      vertex -92.2 76.7387 0.8
    endloop
  endfacet
  facet normal -0.442299 0.896868 0
    outer loop
      vertex -90.7453 77.4561 0.8
      vertex -90.7453 77.4561 4.44089e-16
      vertex -92.2 76.7387 4.44089e-16
    endloop
  endfacet
  facet normal -0.321439 0.94693 0
    outer loop
      vertex -89.2093 77.9775 0.8
      vertex -90.7453 77.4561 4.44089e-16
      vertex -90.7453 77.4561 0.8
    endloop
  endfacet
  facet normal -0.321439 0.94693 0
    outer loop
      vertex -89.2093 77.9775 0.8
      vertex -89.2093 77.9775 4.44089e-16
      vertex -90.7453 77.4561 4.44089e-16
    endloop
  endfacet
  facet normal -0.195073 0.980789 0
    outer loop
      vertex -87.6185 78.2939 0.8
      vertex -89.2093 77.9775 4.44089e-16
      vertex -89.2093 77.9775 0.8
    endloop
  endfacet
  facet normal -0.195073 0.980789 0
    outer loop
      vertex -87.6185 78.2939 0.8
      vertex -87.6185 78.2939 4.44089e-16
      vertex -89.2093 77.9775 4.44089e-16
    endloop
  endfacet
  facet normal -0.0654141 0.997858 0
    outer loop
      vertex -86 78.4 0.8
      vertex -87.6185 78.2939 4.44089e-16
      vertex -87.6185 78.2939 0.8
    endloop
  endfacet
  facet normal -0.0654141 0.997858 0
    outer loop
      vertex -86 78.4 0.8
      vertex -86 78.4 4.44089e-16
      vertex -87.6185 78.2939 4.44089e-16
    endloop
  endfacet
  facet normal 0 1 0
    outer loop
      vertex -62.4 78.4 0.8
      vertex -86 78.4 4.44089e-16
      vertex -86 78.4 0.8
    endloop
  endfacet
  facet normal 0 1 0
    outer loop
      vertex -62.4 78.4 0.8
      vertex -62.4 78.4 4.44089e-16
      vertex -86 78.4 4.44089e-16
    endloop
  endfacet
  facet normal 1 -0 0
    outer loop
      vertex -62.4 75.1 0.8
      vertex -62.4 78.4 4.44089e-16
      vertex -62.4 78.4 0.8
    endloop
  endfacet
  facet normal 1 0 0
    outer loop
      vertex -62.4 75.1 0.8
      vertex -62.4 75.1 4.44089e-16
      vertex -62.4 78.4 4.44089e-16
    endloop
  endfacet
  facet normal 0 1 0
    outer loop
      vertex -37.6 75.1 0.8
      vertex -62.4 75.1 4.44089e-16
      vertex -62.4 75.1 0.8
    endloop
  endfacet
  facet normal 0 1 0
    outer loop
      vertex -37.6 75.1 0.8
      vertex -37.6 75.1 4.44089e-16
      vertex -62.4 75.1 4.44089e-16
    endloop
  endfacet
  facet normal -1 -0 0
    outer loop
      vertex -37.6 78.4 0.8
      vertex -37.6 75.1 4.44089e-16
      vertex -37.6 75.1 0.8
    endloop
  endfacet
  facet normal -1 0 -0
    outer loop
      vertex -37.6 78.4 0.8
      vertex -37.6 78.4 4.44089e-16
      vertex -37.6 75.1 4.44089e-16
    endloop
  endfacet
  facet normal 0 1 0
    outer loop
      vertex 37.6 78.4 0.8
      vertex -37.6 78.4 4.44089e-16
      vertex -37.6 78.4 0.8
    endloop
  endfacet
  facet normal 0 1 0
    outer loop
      vertex 37.6 78.4 0.8
      vertex 37.6 78.4 4.44089e-16
      vertex -37.6 78.4 4.44089e-16
    endloop
  endfacet
  facet normal 1 -0 0
    outer loop
      vertex 37.6 75.1 0.8
      vertex 37.6 78.4 4.44089e-16
      vertex 37.6 78.4 0.8
    endloop
  endfacet
  facet normal 1 0 0
    outer loop
      vertex 37.6 75.1 0.8
      vertex 37.6 75.1 4.44089e-16
      vertex 37.6 78.4 4.44089e-16
    endloop
  endfacet
  facet normal 0 1 0
    outer loop
      vertex 62.4 75.1 0.8
      vertex 37.6 75.1 4.44089e-16
      vertex 37.6 75.1 0.8
    endloop
  endfacet
  facet normal 0 1 0
    outer loop
      vertex 62.4 75.1 0.8
      vertex 62.4 75.1 4.44089e-16
      vertex 37.6 75.1 4.44089e-16
    endloop
  endfacet
  facet normal -1 -0 0
    outer loop
      vertex 62.4 78.4 0.8
      vertex 62.4 75.1 4.44089e-16
      vertex 62.4 75.1 0.8
    endloop
  endfacet
  facet normal -1 0 -0
    outer loop
      vertex 62.4 78.4 0.8
      vertex 62.4 78.4 4.44089e-16
      vertex 62.4 75.1 4.44089e-16
    endloop
  endfacet
  facet normal 0 1 0
    outer loop
      vertex 86 78.4 0.8
      vertex 62.4 78.4 4.44089e-16
      vertex 62.4 78.4 0.8
    endloop
  endfacet
  facet normal 0 1 0
    outer loop
      vertex 86 78.4 0.8
      vertex 86 78.4 4.44089e-16
      vertex 62.4 78.4 4.44089e-16
    endloop
  endfacet
  facet normal 0.0654141 0.997858 0
    outer loop
      vertex 87.6185 78.2939 0.8
      vertex 86 78.4 4.44089e-16
      vertex 86 78.4 0.8
    endloop
  endfacet
  facet normal 0.0654141 0.997858 0
    outer loop
      vertex 87.6185 78.2939 0.8
      vertex 87.6185 78.2939 4.44089e-16
      vertex 86 78.4 4.44089e-16
    endloop
  endfacet
endsolid OpenSCAD_Model
